PathFileType  4	(X/Y/Z) subject11/noload/static/trial01/expdata
DataRate	CameraRate	NumFrames	NumMarkers	Units	OrigDataRate	OrigDataStartFrame	OrigNumFrames
100.0	100.0	4	64	mm	100.0	1	287
Frame#	Time	R.Shoulder			L.Shoulder			R.Clavicle			L.Clavicle			R.Biceps			R.Elbow			R.MElbow			R.Forearm			R.Wrist			L.Biceps			L.Elbow			L.MElbow			L.Forearm			L.Wrist			R.ASIS			L.ASIS			R.PSIS			S2			L.PSIS			R.TH1			R.TH2			R.TH3			R.Knee			R.MKnee			R.SH1			R.SH2			R.SH3			R.SH4			R.Ankle			R.MAnkle			R.Heel			R.MT5			R.Toe			L.TH1			L.TH2			L.TH3			L.TH4			L.Knee			L.MKnee			L.SH1			L.SH2			L.SH3			L.Ankle			L.MAnkle			L.Heel			L.MT5			L.Toe			R_HJC			L_HJC			L.HeelGround			L.ToeGround			L.MT5Ground			L.AnkleJoint			L.AnkleJointGround			L.KneeJoint			R.HeelGround			R.ToeGround			R.MT5Ground			R.AnkleJoint			R.AnkleJointGround			R.KneeJoint			MidASIS			MidPSIS			MidClavicle			
		X1	Y1	Z1	X2	Y2	Z2	X3	Y3	Z3	X4	Y4	Z4	X5	Y5	Z5	X6	Y6	Z6	X7	Y7	Z7	X8	Y8	Z8	X9	Y9	Z9	X10	Y10	Z10	X11	Y11	Z11	X12	Y12	Z12	X13	Y13	Z13	X14	Y14	Z14	X15	Y15	Z15	X16	Y16	Z16	X17	Y17	Z17	X18	Y18	Z18	X19	Y19	Z19	X20	Y20	Z20	X21	Y21	Z21	X22	Y22	Z22	X23	Y23	Z23	X24	Y24	Z24	X25	Y25	Z25	X26	Y26	Z26	X27	Y27	Z27	X28	Y28	Z28	X29	Y29	Z29	X30	Y30	Z30	X31	Y31	Z31	X32	Y32	Z32	X33	Y33	Z33	X34	Y34	Z34	X35	Y35	Z35	X36	Y36	Z36	X37	Y37	Z37	X38	Y38	Z38	X39	Y39	Z39	X40	Y40	Z40	X41	Y41	Z41	X42	Y42	Z42	X43	Y43	Z43	X44	Y44	Z44	X45	Y45	Z45	X46	Y46	Z46	X47	Y47	Z47	X48	Y48	Z48	X49	Y49	Z49	X50	Y50	Z50	X51	Y51	Z51	X52	Y52	Z52	X53	Y53	Z53	X54	Y54	Z54	X55	Y55	Z55	X56	Y56	Z56	X57	Y57	Z57	X58	Y58	Z58	X59	Y59	Z59	X60	Y60	Z60	X61	Y61	Z61	X62	Y62	Z62	X63	Y63	Z63	X64	Y64	Z64	

1	0.00000	463.565	1572.120	-254.468	741.900	1572.208	-244.340	569.615	1500.099	-165.278	623.060	1500.925	-161.048	250.307	1518.696	-259.351	151.079	1537.896	-289.935	167.593	1478.241	-358.481	137.448	1405.937	-206.993	120.061	1299.848	-155.278	926.454	1539.258	-237.496	1049.732	1521.354	-236.705	1040.550	1460.087	-303.634	1066.460	1409.504	-138.265	1069.216	1317.079	-75.810	462.407	1028.719	-140.644	718.618	1017.773	-148.411	540.848	1038.586	-350.701	582.795	1016.552	-364.883	631.128	1036.048	-353.742	378.196	798.321	-185.674	374.116	791.490	-294.689	390.955	662.521	-295.887	401.193	528.815	-256.963	531.687	503.210	-248.358	385.587	435.415	-250.784	371.417	324.370	-260.168	386.819	437.900	-334.817	379.779	318.342	-344.768	388.138	113.259	-304.580	473.184	110.998	-279.025	436.007	37.077	-377.607	340.530	39.612	-193.620	431.145	55.731	-77.822	799.601	821.606	-179.487	773.218	693.461	-174.843	807.124	828.820	-285.976	780.099	695.331	-293.069	761.333	532.389	-261.599	629.339	507.131	-277.583	763.508	426.533	-240.022	791.207	446.290	-331.264	798.292	330.427	-346.640	797.391	116.506	-297.157	710.881	112.175	-289.430	755.097	35.588	-384.822	838.563	36.311	-193.621	743.319	58.524	-89.518	475.282	939.652	-240.423	690.157	934.731	-242.677	755.097	0.000	-384.822	743.319	0.000	-89.518	838.563	0.000	-193.621	754.136	114.340	-293.293	754.136	0.000	-293.293	695.336	519.760	-269.591	436.007	0.000	-377.607	431.145	0.000	-77.822	340.530	0.000	-193.620	430.661	112.129	-291.803	430.661	0.000	-291.803	466.440	516.013	-252.661	590.513	1023.246	-144.528	585.988	1037.317	-352.221	596.337	1500.512	-163.163
2	0.01000	463.577	1571.958	-254.501	741.874	1572.164	-244.336	569.772	1499.919	-165.442	623.056	1500.625	-161.239	250.275	1518.512	-259.330	150.968	1537.755	-289.808	167.784	1477.892	-358.354	137.524	1405.872	-206.807	119.919	1299.797	-154.989	926.444	1539.119	-237.402	1049.722	1521.255	-236.579	1040.594	1459.962	-303.547	1066.270	1409.354	-138.146	1069.030	1316.947	-75.710	462.362	1028.687	-140.689	718.546	1017.755	-148.377	540.797	1038.579	-350.713	582.863	1016.484	-364.877	631.197	1035.977	-353.724	378.050	798.351	-185.778	374.142	791.504	-294.770	390.949	662.452	-295.976	401.198	528.778	-257.020	531.187	502.806	-248.839	385.573	435.432	-250.800	371.396	324.324	-260.229	386.821	437.901	-334.840	379.752	318.303	-344.808	388.147	113.277	-304.587	473.152	110.823	-279.103	436.018	37.044	-377.612	340.619	39.563	-193.594	431.159	55.680	-77.815	799.593	821.545	-179.449	773.207	693.338	-174.810	807.122	828.705	-285.909	780.112	695.304	-293.061	761.317	532.294	-261.638	629.332	507.110	-277.594	763.543	426.413	-240.082	791.213	446.239	-331.262	798.317	330.363	-346.683	797.400	116.399	-297.178	710.885	112.106	-289.443	755.145	35.521	-384.820	838.543	36.189	-193.595	743.274	58.516	-89.526	475.263	939.617	-240.455	690.139	934.694	-242.628	755.145	0.000	-384.820	743.274	0.000	-89.526	838.543	0.000	-193.595	754.142	114.252	-293.310	754.142	0.000	-293.310	695.324	519.702	-269.616	436.018	0.000	-377.612	431.159	0.000	-77.815	340.619	0.000	-193.594	430.649	112.050	-291.845	430.649	0.000	-291.845	466.192	515.792	-252.929	590.454	1023.221	-144.533	585.997	1037.278	-352.219	596.414	1500.272	-163.341
3	0.02000	463.550	1571.869	-254.534	742.033	1572.403	-244.340	569.937	1499.667	-165.603	623.079	1500.510	-161.349	250.270	1518.359	-259.264	150.998	1537.656	-289.724	167.608	1477.736	-358.234	137.445	1405.669	-206.585	120.075	1299.505	-154.810	926.496	1539.015	-237.346	1049.753	1521.120	-236.510	1040.630	1459.818	-303.459	1066.257	1409.275	-138.073	1068.945	1316.933	-75.571	462.241	1028.746	-140.769	718.555	1017.688	-148.359	540.927	1038.529	-350.751	582.928	1016.455	-364.875	631.257	1035.877	-353.718	378.016	798.396	-185.851	374.137	791.493	-294.827	390.952	662.435	-296.041	401.155	528.763	-257.061	530.967	502.565	-249.076	385.550	435.394	-250.814	371.371	324.298	-260.250	386.789	437.815	-334.876	379.858	318.161	-344.815	388.153	113.229	-304.598	473.102	110.719	-279.214	436.042	37.039	-377.605	340.562	39.414	-193.568	431.234	55.605	-77.832	799.577	821.483	-179.427	773.128	693.300	-174.782	807.136	828.621	-285.844	780.109	695.231	-293.048	761.294	532.197	-261.653	629.327	507.112	-277.618	763.558	426.384	-240.093	791.216	446.178	-331.288	798.315	330.305	-346.694	797.441	116.290	-297.225	710.888	112.096	-289.454	755.150	35.479	-384.812	838.583	36.110	-193.602	743.349	58.463	-89.544	475.232	939.643	-240.510	690.107	934.614	-242.566	755.150	0.000	-384.812	743.349	0.000	-89.544	838.583	0.000	-193.602	754.165	114.193	-293.340	754.165	0.000	-293.340	695.311	519.654	-269.635	436.042	0.000	-377.605	431.234	0.000	-77.832	340.562	0.000	-193.568	430.627	111.974	-291.906	430.627	0.000	-291.906	466.061	515.664	-253.068	590.398	1023.217	-144.564	586.092	1037.203	-352.235	596.508	1500.088	-163.476
4	0.03000	463.517	1571.811	-254.583	741.964	1572.389	-244.424	570.011	1499.519	-165.751	624.373	1499.125	-162.586	250.375	1518.082	-259.214	150.845	1537.515	-289.558	167.649	1477.650	-358.074	137.528	1405.366	-206.377	119.992	1299.388	-154.546	926.470	1538.980	-237.341	1049.794	1520.994	-236.413	1040.470	1459.731	-303.359	1066.153	1409.210	-137.998	1068.854	1316.873	-75.454	462.202	1028.737	-140.823	718.547	1017.646	-148.326	541.211	1038.398	-350.743	582.945	1016.448	-364.879	631.422	1035.773	-353.668	377.950	798.420	-185.908	374.113	791.486	-294.870	390.926	662.420	-296.085	401.115	528.651	-257.095	531.076	502.419	-249.069	385.499	435.352	-250.858	371.346	324.266	-260.277	386.799	437.787	-334.888	379.869	318.094	-344.854	388.155	113.213	-304.612	473.116	110.618	-279.208	436.134	36.925	-377.609	340.557	39.395	-193.571	431.261	55.553	-77.800	799.553	821.428	-179.347	773.005	693.285	-174.694	807.253	828.604	-285.718	780.210	695.189	-292.983	761.260	532.224	-261.652	629.315	507.115	-277.626	763.570	426.387	-240.115	791.133	446.122	-331.251	798.326	330.263	-346.704	797.443	116.283	-297.207	710.882	112.074	-289.468	755.215	35.415	-384.816	838.621	36.220	-193.662	743.336	58.445	-89.548	475.282	939.610	-240.553	690.157	934.544	-242.476	755.215	0.000	-384.816	743.336	0.000	-89.548	838.621	0.000	-193.662	754.162	114.178	-293.337	754.162	0.000	-293.337	695.288	519.669	-269.639	436.134	0.000	-377.609	431.261	0.000	-77.800	340.557	0.000	-193.571	430.635	111.915	-291.910	430.635	0.000	-291.910	466.096	515.535	-253.082	590.375	1023.192	-144.575	586.317	1037.085	-352.206	597.192	1499.322	-164.168
